<?xml version="1.0" encoding="iso-8859-1"?>
<!-- Generator: Adobe Illustrator 19.0.0, SVG Export Plug-In . SVG Version: 6.00 Build 0)  -->
<svg version="1.1" id="Capa_1" xmlns="http://www.w3.org/2000/svg" xmlns:xlink="http://www.w3.org/1999/xlink" x="0px" y="0px"
	 viewBox="0 0 512.05 512.05" style="enable-background:new 0 0 512.05 512.05;" xml:space="preserve">
<path style="fill:#2196F3;" d="M256.025,0.05C117.67-2.678,3.184,107.038,0.025,245.383c0.361,70.423,31.544,137.157,85.333,182.613
	v73.387c0,5.891,4.776,10.667,10.667,10.667c1.999,0,3.958-0.562,5.653-1.621l59.456-37.141
	c30.292,11.586,62.459,17.494,94.891,17.429c138.355,2.728,252.841-106.988,256-245.333C508.866,107.038,394.38-2.678,256.025,0.05z
	"/>
<path style="fill:#FAFAFA;" d="M424.558,174.983c-3.174-4.254-8.993-5.527-13.653-2.987l-110.933,60.48l-69.013-59.179
	c-4.232-3.628-10.544-3.387-14.485,0.555l-128,128c-4.153,4.178-4.133,10.932,0.046,15.085c3.341,3.321,8.464,4.057,12.605,1.811
	l110.933-60.48l69.077,59.2c4.232,3.628,10.544,3.387,14.485-0.555l128-128C427.35,185.148,427.75,179.215,424.558,174.983z"/>
<g>
</g>
<g>
</g>
<g>
</g>
<g>
</g>
<g>
</g>
<g>
</g>
<g>
</g>
<g>
</g>
<g>
</g>
<g>
</g>
<g>
</g>
<g>
</g>
<g>
</g>
<g>
</g>
<g>
</g>
</svg>
