<?xml version="1.0" encoding="UTF-8"?>
<svg xmlns="http://www.w3.org/2000/svg" xmlns:xlink="http://www.w3.org/1999/xlink" width="64pt" height="64pt" viewBox="0 0 64 64" version="1.1">
<g id="surface1">
<path style=" stroke:none;fill-rule:nonzero;fill:rgb(25.882353%,12.54902%,52.156863%);fill-opacity:1;" d="M 4.5 0.238281 C 3.363281 0.601562 2.726562 1 1.863281 1.863281 C 0.988281 2.738281 0.539062 3.488281 0.199219 4.613281 C 0.0234375 5.238281 0 7.800781 0 32 C 0 61.289062 -0.0507812 59.164062 0.726562 60.6875 C 1.125 61.488281 2.511719 62.875 3.3125 63.273438 C 4.835938 64.050781 2.710938 64 32 64 C 61.289062 64 59.164062 64.050781 60.6875 63.273438 C 61.488281 62.875 62.875 61.488281 63.273438 60.6875 C 64.050781 59.164062 64 61.289062 64 32 C 64 2.710938 64.050781 4.835938 63.273438 3.3125 C 62.875 2.511719 61.488281 1.125 60.6875 0.726562 C 59.164062 -0.0507812 61.300781 0 31.949219 0.0117188 C 6.648438 0.0117188 5.148438 0.0234375 4.5 0.238281 Z M 46.125 12.1875 C 51.539062 12.949219 54.773438 15.5625 55.898438 20.101562 C 56.125 21 56.175781 21.539062 56.164062 23.25 C 56.164062 25.074219 56.125 25.449219 55.835938 26.511719 C 55.460938 27.863281 54.601562 29.976562 53.835938 31.363281 C 53.238281 32.449219 53.136719 32.136719 54.898438 34.460938 C 56.25 36.226562 56.949219 37.460938 57.398438 38.875 C 57.636719 39.664062 57.6875 40.074219 57.675781 41.375 C 57.664062 45.636719 55.710938 48.8125 52.226562 50.273438 C 50.335938 51.074219 47.585938 51.5 44.25 51.5 C 42.074219 51.5 34.726562 51.125 34.585938 51 C 34.375 50.8125 34.273438 40.761719 34.335938 27.289062 L 34.414062 13.125 L 34.875 13 C 38.273438 12.085938 42.949219 11.75 46.125 12.1875 Z M 13.789062 13.976562 C 14.050781 14.050781 14.289062 14.125 14.300781 14.148438 C 14.324219 14.164062 14.289062 15.425781 14.226562 16.9375 C 13.988281 22.300781 14.238281 33.175781 14.738281 39.875 C 14.863281 41.523438 15.0625 42.0625 15.851562 42.773438 C 17.664062 44.414062 20.835938 43.511719 21.488281 41.164062 C 21.613281 40.726562 21.800781 32.800781 21.976562 20.5625 L 22.0625 14.3125 L 23.25 14.148438 C 23.898438 14.0625 25.425781 13.976562 26.625 13.960938 C 28.449219 13.9375 28.925781 13.976562 29.449219 14.164062 L 30.085938 14.386719 L 30.175781 15.789062 C 30.488281 21.261719 30.375 31.6875 29.9375 37.5 C 29.476562 43.550781 29.261719 44.738281 28.3125 46.6875 C 27.351562 48.6875 25.9375 50.125 24.0625 51.011719 C 22.3125 51.851562 20.199219 52.210938 17.898438 52.074219 C 11.851562 51.699219 7.613281 48.960938 6.550781 44.75 C 6.363281 44.011719 6.351562 43.074219 6.449219 34.25 C 6.511719 28.925781 6.5625 22.164062 6.5625 19.226562 L 6.5625 13.886719 L 7.1875 13.835938 C 8.3125 13.738281 13.300781 13.851562 13.789062 13.976562 Z M 13.789062 13.976562 "/>
<path style=" stroke:none;fill-rule:nonzero;fill:rgb(25.882353%,12.54902%,52.156863%);fill-opacity:1;" d="M 42.425781 21.148438 L 42.039062 21.273438 L 41.949219 23.738281 C 41.851562 26.738281 41.988281 27.949219 42.460938 28.136719 C 42.636719 28.199219 43.488281 28.25 44.351562 28.25 C 47.113281 28.261719 47.988281 27.789062 48.898438 25.789062 C 49.164062 25.210938 49.289062 24.738281 49.289062 24.3125 C 49.300781 22.800781 47.960938 21.5 46 21.125 C 45.175781 20.960938 42.9375 20.988281 42.425781 21.148438 Z M 42.425781 21.148438 "/>
<path style=" stroke:none;fill-rule:nonzero;fill:rgb(25.882353%,12.54902%,52.156863%);fill-opacity:1;" d="M 42.023438 36.386719 C 41.523438 38.425781 41.5 41.523438 41.988281 42.761719 L 42.25 43.460938 L 43.414062 43.539062 C 45.636719 43.664062 47.324219 43.324219 48.210938 42.5625 C 48.875 42 49.164062 41.289062 49.148438 40.1875 C 49.148438 39.113281 48.988281 38.476562 48.523438 37.738281 C 47.761719 36.550781 46.523438 36.074219 43.738281 35.925781 L 42.164062 35.835938 Z M 42.023438 36.386719 "/>
</g>
</svg>
